<?xml version="1.0" encoding="utf-8"?>
<!-- Generator: Adobe Illustrator 27.6.1, SVG Export Plug-In . SVG Version: 6.00 Build 0)  -->
<svg version="1.1" id="Camada_1" xmlns="http://www.w3.org/2000/svg" xmlns:xlink="http://www.w3.org/1999/xlink" x="0px" y="0px"
	 viewBox="0 0 303.06 116.93" style="enable-background:new 0 0 303.06 116.93;" xml:space="preserve">
<style type="text/css">
	.st0{fill:#0400A1;}
</style>
<g>
	<polygon class="st0" points="43.06,60.07 43.06,60.07 43.06,60.07 	"/>
	<path class="st0" d="M0,71.8c0,22.8,18.49,41.29,41.29,41.29h0c22.8,0,41.29-18.49,41.29-41.29V5.35H0V71.8z M69.99,80.94
		c-0.02,0.06-0.04,0.11-0.06,0.17c-0.3,0.94-0.65,1.85-1.04,2.74l-19.91-6.45l12.28,16.93c-0.73,0.65-1.49,1.26-2.28,1.84
		c-0.8,0.58-1.63,1.13-2.48,1.62L44.24,80.87l0.01,20.89c-0.57,0.06-1.15,0.1-1.72,0.12c-0.41,0.02-0.82,0.03-1.23,0.03
		c-0.42,0-0.83-0.01-1.25-0.03c-0.58-0.02-1.15-0.06-1.72-0.12V80.9L26.08,97.78c-0.86-0.5-1.68-1.04-2.48-1.62
		c-0.8-0.58-1.57-1.21-2.31-1.86l12.28-16.88l-19.85,6.46c-0.4-0.9-0.75-1.83-1.06-2.77c-0.03-0.08-0.05-0.15-0.07-0.23
		c-0.27-0.86-0.51-1.74-0.7-2.64l22.83-7.4c2.63-0.85,5.45,0.58,6.31,3.21l0.28,0.84l0.27-0.83c0.85-2.63,3.68-4.07,6.31-3.22
		l22.83,7.4C70.51,79.16,70.27,80.06,69.99,80.94z M37.59,62.53c0-1.02,0.41-1.94,1.08-2.61c0.67-0.67,1.6-1.09,2.62-1.09
		c1.02,0,1.94,0.41,2.61,1.08c0.67,0.66,1.09,1.59,1.09,2.62c0,2.04-1.66,3.7-3.7,3.7C39.25,66.22,37.59,64.57,37.59,62.53z
		 M68.6,59.11c0.43-0.18,0.9-0.27,1.39-0.28H70c1.59,0,3.05,1.01,3.52,2.53c0.68,2.22-0.68,4.29-2.66,4.76
		c-0.27,0.07-0.56,0.1-0.86,0.1h-0.02c-0.82,0-1.58-0.28-2.2-0.74c-0.43-0.33-0.94-0.54-1.48-0.57l-14.12-0.76h0l-0.18-0.01
		c-0.82-0.09-1.46-0.78-1.46-1.62c0-0.9,0.73-1.63,1.63-1.63l14.1-0.76c0.54-0.03,1.06-0.23,1.49-0.56
		C68.02,59.39,68.3,59.23,68.6,59.11z M56.16,42.75c-0.15-1.56,0.37-3.18,1.57-4.37c0,0,0,0,0.01-0.01c1.76-1.76,4.43-2.07,6.5-0.91
		c0,0,0.01,0,0.01,0.01c0.28,0.19,0.56,0.39,0.84,0.58c0.01,0,0.01,0.01,0.02,0.01c0.11,0.1,0.23,0.2,0.33,0.31l0,0
		c2.13,2.13,2.13,5.58,0,7.71l-0.01,0.01c-1.2,1.2-2.82,1.72-4.38,1.56c-0.92-0.09-1.83,0.17-2.52,0.78l-8.39,7.54
		c-0.64,0.64-1.67,0.64-2.31,0l0,0c-0.63-0.64-0.63-1.67,0-2.31l7.54-8.4C55.99,44.58,56.25,43.67,56.16,42.75z M35.78,18.83
		c3.05-3.05,7.99-3.05,11.04,0c2.64,2.64,2.99,6.69,1.07,9.71c-0.3,0.47-0.65,0.93-1.07,1.34c-0.23,0.23-0.46,0.43-0.71,0.62
		c-0.11,0.09-0.22,0.17-0.33,0.24l-0.57,0.4c-1.02,0.72-1.65,1.88-1.7,3.13L42.87,52v0.01c-0.17,0.72-0.81,1.26-1.58,1.26
		c0,0,0,0-0.01,0c-0.8,0-1.46-0.57-1.6-1.32v-0.01l-0.63-17.68c-0.04-1.25-0.67-2.41-1.69-3.13l-0.55-0.39c0,0,0,0,0,0
		c-0.11-0.07-0.22-0.15-0.32-0.24c-0.25-0.19-0.48-0.4-0.71-0.62C35.36,29.46,35,29,34.7,28.52C32.78,25.5,33.15,21.47,35.78,18.83z
		 M17.12,38.37L17.12,38.37c0.09-0.09,0.17-0.17,0.26-0.24c0,0,0,0,0.01,0c0.35-0.25,0.7-0.49,1.05-0.72
		c2.06-1.08,4.66-0.76,6.39,0.97c0,0,0,0,0.01,0.01c1.19,1.2,1.71,2.81,1.57,4.38c-0.09,0.92,0.17,1.83,0.79,2.52l7.55,8.4
		c0.64,0.64,0.64,1.67,0,2.31l0,0c-0.64,0.63-1.67,0.63-2.31,0l-8.41-7.54c-0.69-0.62-1.6-0.87-2.52-0.78
		c-1.56,0.15-3.18-0.37-4.38-1.56l-0.01-0.01C14.99,43.95,14.99,40.5,17.12,38.37z M8.91,62.1c0.21-1.86,1.85-3.29,3.71-3.27
		c0.48,0.01,0.94,0.1,1.36,0.28c0.3,0.12,0.57,0.28,0.82,0.47c0.43,0.33,0.95,0.53,1.49,0.56l14.1,0.76h0l0.18,0.01
		c0.82,0.09,1.46,0.78,1.46,1.62c0,0.9-0.73,1.63-1.63,1.63l-14.12,0.76c-0.54,0.03-1.05,0.24-1.49,0.57
		c-0.62,0.46-1.38,0.74-2.21,0.74c-0.29,0-0.58-0.03-0.86-0.1C9.96,65.71,8.69,64.03,8.91,62.1z"/>
	<path class="st0" d="M266.81,4.28c-11.29,0-19.51,2.97-24.43,8.84c-4.69,5.58-7.06,13.66-7.06,24.02v7.44
		c0,10.44,2.34,18.52,6.96,24.02c4.93,5.87,13.18,8.84,24.53,8.84c11.29,0,19.51-2.97,24.43-8.84c4.69-5.58,7.06-13.66,7.06-24.02
		v-7.44c0-10.36-2.38-18.45-7.06-24.02C286.32,7.25,278.1,4.28,266.81,4.28z M285.36,44.58c0,7-1.36,12.31-3.93,15.37
		c-2.29,2.73-7.48,4.23-14.62,4.23c-7.3,0-12.39-1.46-14.71-4.23l0,0c-2.51-2.98-3.83-8.3-3.83-15.37v-7.44
		c0-7,1.36-12.31,3.93-15.37c2.29-2.73,7.48-4.23,14.62-4.23c7.24,0,12.29,1.46,14.62,4.23c2.57,3.06,3.93,8.37,3.93,15.37V44.58z"
		/>
	<path class="st0" d="M300.35,4.15c0.18-0.17,0.38-0.42,0.38-0.84c0-0.76-0.6-1.35-1.46-1.35h-1.79v4.12h1.03V4.66h0.54l0.7,1.41
		h1.14l-0.92-1.68C300.11,4.33,300.23,4.25,300.35,4.15z M299.21,3.74h-0.7V2.87h0.7c0.29,0,0.43,0.14,0.43,0.43
		C299.65,3.6,299.51,3.74,299.21,3.74z"/>
	<path class="st0" d="M299,0c-2.29,0-4.06,1.79-4.06,4.01c0,2.22,1.78,4.01,4.06,4.01c2.29,0,4.06-1.79,4.06-4.01
		C303.06,1.79,301.28,0,299,0z M299,7.15c-1.69,0-3.09-1.41-3.09-3.14c0-1.73,1.4-3.14,3.09-3.14c1.69,0,3.09,1.41,3.09,3.14
		C302.08,5.74,300.69,7.15,299,7.15z"/>
	<path class="st0" d="M128.47,77.44c10.73,0,18.54-2.76,23.23-8.2c4.45-5.18,6.71-12.68,6.71-22.29L158.36,5.4h-12.32l0.05,41.55
		c0,6.49-1.29,11.43-3.73,14.26c-2.18,2.53-7.11,3.92-13.89,3.92c-6.78,0-11.72-1.39-13.89-3.92c-2.44-2.84-3.73-7.77-3.73-14.26
		l0.05-41.55H98.57l-0.04,41.55c0,9.62,2.26,17.12,6.71,22.29C109.92,74.68,117.74,77.44,128.47,77.44z"/>
	<path class="st0" d="M225.64,64.9V5.4h-12.73v55.27c0,1.4,0.25,2.78,0.73,4.09L213,64.99l-0.16-0.43L193.68,12.2
		c-2.24-5.84-3.66-7.92-12.23-7.92c-12.32,0-12.32,6.28-12.32,12.54v59.5h12.73V21.05c0-1.4-0.25-2.78-0.73-4.09l0-0.01l0.64-0.23
		l0.09,0.24l0.32,0.88l1.1,3.01l17.82,48.67c2.24,5.84,3.66,7.92,12.23,7.92C225.64,77.44,225.64,71.16,225.64,64.9z"/>
	<path class="st0" d="M111.09,88.26h-2.49v7.05c0,0.85-0.17,1.47-0.51,1.87c-0.34,0.4-0.95,0.6-1.84,0.6
		c-0.51,0-0.91-0.07-1.21-0.21c-0.3-0.14-0.54-0.32-0.71-0.56c-0.17-0.23-0.28-0.5-0.33-0.79c-0.05-0.3-0.08-0.6-0.08-0.91v-7.05
		h-2.49v7.05c0,1.55,0.42,2.69,1.26,3.44c0.84,0.75,2.03,1.12,3.56,1.12c1.51,0,2.7-0.38,3.56-1.13c0.86-0.75,1.29-1.89,1.29-3.43
		V88.26z"/>
	<path class="st0" d="M120.09,92.1c-0.22-0.29-0.53-0.52-0.91-0.68c-0.39-0.16-0.88-0.25-1.48-0.25c-0.48,0-0.94,0.11-1.4,0.33
		c-0.46,0.22-0.83,0.57-1.11,1.03h-0.05v-1.14h-2.14v8.21h2.25v-4.3c0-0.84,0.14-1.44,0.41-1.8c0.28-0.37,0.72-0.55,1.33-0.55
		c0.53,0,0.9,0.17,1.12,0.5c0.22,0.33,0.33,0.84,0.33,1.52v4.63h2.25v-5.05c0-0.51-0.05-0.97-0.13-1.39
		C120.46,92.74,120.31,92.39,120.09,92.1z"/>
	<rect x="122.47" y="91.39" class="st0" width="2.25" height="8.21"/>
	<rect x="122.47" y="88.26" class="st0" width="2.25" height="1.86"/>
	<polygon class="st0" points="129.85,96.99 129.82,96.99 128.09,91.39 125.72,91.39 128.53,99.6 131.04,99.6 133.82,91.39 
		131.58,91.39 	"/>
	<path class="st0" d="M136.8,99.5c0.52,0.21,1.1,0.32,1.75,0.32c0.93,0,1.73-0.22,2.38-0.65c0.66-0.43,1.14-1.14,1.46-2.11h-1.98
		c-0.07,0.25-0.28,0.49-0.6,0.72c-0.33,0.23-0.72,0.34-1.17,0.34c-0.63,0-1.12-0.17-1.46-0.5c-0.34-0.33-0.52-0.86-0.56-1.58h5.92
		c0.04-0.63-0.01-1.24-0.16-1.83c-0.15-0.58-0.39-1.1-0.72-1.56c-0.33-0.45-0.76-0.82-1.28-1.09c-0.52-0.27-1.13-0.4-1.83-0.4
		c-0.62,0-1.19,0.11-1.71,0.33c-0.51,0.22-0.96,0.53-1.33,0.91c-0.37,0.39-0.66,0.84-0.86,1.37c-0.2,0.53-0.3,1.1-0.3,1.71
		c0,0.64,0.1,1.22,0.29,1.75c0.2,0.53,0.47,0.98,0.83,1.37C135.84,98.99,136.28,99.29,136.8,99.5z M136.71,94.07
		c0.06-0.2,0.16-0.39,0.3-0.57c0.14-0.18,0.33-0.33,0.57-0.45c0.24-0.12,0.54-0.18,0.9-0.18c0.55,0,0.96,0.15,1.23,0.44
		c0.27,0.3,0.46,0.73,0.56,1.3h-3.67C136.62,94.45,136.66,94.27,136.71,94.07z"/>
	<path class="st0" d="M146.12,95.9c0-0.36,0.04-0.7,0.11-1.02c0.07-0.32,0.2-0.6,0.37-0.84c0.17-0.24,0.41-0.43,0.69-0.56
		c0.29-0.14,0.63-0.21,1.05-0.21c0.14,0,0.28,0.01,0.43,0.02c0.15,0.02,0.27,0.03,0.38,0.06v-2.1c-0.16-0.05-0.32-0.08-0.49-0.08
		c-0.28,0-0.55,0.04-0.82,0.13c-0.27,0.08-0.52,0.2-0.75,0.36c-0.23,0.15-0.44,0.34-0.62,0.56c-0.18,0.22-0.32,0.45-0.43,0.71h-0.03
		v-1.52h-2.14v8.21h2.25V95.9z"/>
	<path class="st0" d="M156.44,95.35c-0.24-0.17-0.52-0.31-0.83-0.42c-0.31-0.11-0.63-0.2-0.96-0.27c-0.32-0.07-0.63-0.14-0.94-0.21
		c-0.31-0.06-0.58-0.13-0.82-0.21c-0.24-0.08-0.43-0.18-0.58-0.31c-0.15-0.13-0.22-0.29-0.22-0.49c0-0.17,0.04-0.3,0.13-0.4
		c0.08-0.1,0.19-0.18,0.31-0.23c0.12-0.05,0.26-0.09,0.4-0.1c0.15-0.02,0.29-0.02,0.41-0.02c0.4,0,0.75,0.08,1.05,0.23
		c0.3,0.15,0.46,0.45,0.49,0.88h2.14c-0.04-0.51-0.17-0.93-0.39-1.26c-0.22-0.33-0.49-0.6-0.82-0.8c-0.33-0.2-0.7-0.34-1.12-0.43
		c-0.42-0.08-0.85-0.13-1.29-0.13c-0.44,0-0.88,0.04-1.3,0.12c-0.42,0.08-0.8,0.22-1.14,0.41c-0.34,0.2-0.61,0.47-0.82,0.81
		c-0.21,0.34-0.31,0.78-0.31,1.29c0,0.36,0.07,0.66,0.22,0.91c0.15,0.25,0.34,0.46,0.59,0.62c0.24,0.16,0.52,0.3,0.83,0.4
		c0.31,0.1,0.63,0.19,0.96,0.26c0.4,0.08,0.76,0.17,1.08,0.25c0.32,0.08,0.58,0.17,0.8,0.26c0.22,0.1,0.38,0.2,0.5,0.33
		s0.17,0.27,0.17,0.44c0,0.2-0.05,0.37-0.14,0.5c-0.09,0.13-0.21,0.24-0.36,0.32c-0.14,0.08-0.3,0.14-0.48,0.17
		c-0.17,0.04-0.34,0.06-0.5,0.06c-0.22,0-0.44-0.03-0.64-0.08c-0.21-0.05-0.39-0.13-0.55-0.25c-0.16-0.11-0.29-0.25-0.39-0.43
		c-0.1-0.17-0.15-0.38-0.15-0.63h-2.14c0.02,0.54,0.15,0.99,0.37,1.37c0.23,0.37,0.52,0.67,0.87,0.9s0.76,0.39,1.21,0.48
		c0.45,0.1,0.92,0.14,1.4,0.14c0.47,0,0.92-0.05,1.37-0.14c0.45-0.1,0.85-0.25,1.2-0.48c0.35-0.22,0.63-0.52,0.85-0.88
		c0.22-0.36,0.33-0.82,0.33-1.36c0-0.38-0.07-0.7-0.22-0.96C156.88,95.74,156.68,95.52,156.44,95.35z"/>
	<rect x="158.63" y="88.26" class="st0" width="2.25" height="1.86"/>
	<rect x="158.63" y="91.39" class="st0" width="2.25" height="8.21"/>
	<path class="st0" d="M168.49,98.55h0.03v1.05h2.14V88.26h-2.25v4.13h-0.03c-0.25-0.4-0.6-0.71-1.04-0.91
		c-0.44-0.21-0.9-0.31-1.39-0.31c-0.6,0-1.13,0.12-1.59,0.36c-0.46,0.24-0.83,0.55-1.14,0.94c-0.3,0.39-0.53,0.84-0.68,1.36
		c-0.15,0.51-0.23,1.05-0.23,1.6c0,0.57,0.08,1.12,0.23,1.65c0.15,0.53,0.38,1,0.68,1.4c0.3,0.41,0.68,0.73,1.14,0.98
		c0.46,0.24,1,0.37,1.63,0.37c0.53,0,1.01-0.1,1.44-0.3C167.87,99.32,168.22,98.99,168.49,98.55z M165.65,97.89
		c-0.25-0.15-0.45-0.35-0.62-0.6c-0.16-0.25-0.28-0.53-0.36-0.85c-0.07-0.32-0.11-0.63-0.11-0.95c0-0.34,0.03-0.66,0.1-0.98
		c0.07-0.31,0.18-0.59,0.33-0.83c0.15-0.24,0.36-0.44,0.61-0.59c0.25-0.15,0.57-0.22,0.94-0.22c0.36,0,0.66,0.07,0.91,0.22
		c0.25,0.15,0.45,0.34,0.6,0.58c0.15,0.24,0.26,0.52,0.33,0.83c0.06,0.32,0.1,0.64,0.1,0.97c0,0.34-0.03,0.67-0.1,0.98
		c-0.06,0.32-0.17,0.6-0.32,0.85s-0.35,0.45-0.6,0.6c-0.25,0.15-0.56,0.22-0.93,0.22C166.2,98.12,165.9,98.04,165.65,97.89z"/>
	<path class="st0" d="M179.73,97.77V93.5c0-0.49-0.11-0.88-0.33-1.19c-0.22-0.31-0.51-0.54-0.86-0.71
		c-0.35-0.17-0.74-0.28-1.16-0.34c-0.42-0.06-0.84-0.09-1.25-0.09c-0.47,0-0.92,0.05-1.37,0.13c-0.44,0.09-0.85,0.24-1.21,0.45
		c-0.36,0.21-0.66,0.49-0.89,0.84c-0.23,0.35-0.36,0.79-0.4,1.32h2.25c0.04-0.44,0.19-0.76,0.45-0.95c0.26-0.19,0.61-0.29,1.04-0.29
		c0.2,0,0.39,0.01,0.56,0.04c0.17,0.03,0.33,0.08,0.46,0.16c0.13,0.08,0.24,0.19,0.32,0.33c0.08,0.14,0.12,0.34,0.12,0.58
		c0,0.23-0.07,0.41-0.22,0.53c-0.15,0.12-0.35,0.21-0.6,0.28c-0.25,0.06-0.53,0.11-0.85,0.14c-0.32,0.03-0.65,0.07-1,0.13
		c-0.35,0.05-0.69,0.12-1.02,0.21c-0.33,0.09-0.63,0.22-0.9,0.4c-0.26,0.18-0.48,0.42-0.64,0.72c-0.16,0.3-0.24,0.69-0.24,1.15
		c0,0.42,0.07,0.79,0.21,1.1c0.14,0.31,0.34,0.56,0.6,0.76c0.25,0.2,0.55,0.35,0.89,0.45c0.34,0.1,0.7,0.15,1.1,0.15
		c0.51,0,1.01-0.08,1.49-0.23c0.49-0.15,0.91-0.42,1.27-0.79c0.01,0.14,0.03,0.27,0.06,0.41c0.03,0.13,0.06,0.26,0.1,0.39h2.29
		c-0.11-0.17-0.18-0.42-0.22-0.76C179.75,98.5,179.73,98.14,179.73,97.77z M177.47,96.42c0,0.13-0.01,0.3-0.04,0.51
		c-0.03,0.21-0.1,0.42-0.21,0.63c-0.12,0.21-0.3,0.38-0.54,0.53c-0.24,0.15-0.59,0.22-1.03,0.22c-0.18,0-0.35-0.02-0.52-0.05
		c-0.17-0.03-0.32-0.09-0.44-0.17c-0.13-0.08-0.23-0.18-0.3-0.32c-0.07-0.13-0.11-0.3-0.11-0.52c0-0.2,0.04-0.37,0.11-0.52
		c0.07-0.14,0.17-0.26,0.29-0.35c0.12-0.09,0.26-0.16,0.42-0.21c0.16-0.05,0.33-0.1,0.51-0.13c0.17-0.03,0.35-0.06,0.53-0.08
		c0.19-0.02,0.36-0.05,0.52-0.08c0.16-0.03,0.32-0.07,0.46-0.12c0.14-0.05,0.26-0.11,0.36-0.2V96.42z"/>
	<path class="st0" d="M187.22,92.39h-0.03c-0.25-0.4-0.6-0.71-1.04-0.91c-0.44-0.21-0.9-0.31-1.39-0.31c-0.6,0-1.13,0.12-1.59,0.36
		c-0.45,0.24-0.83,0.55-1.13,0.94c-0.3,0.39-0.53,0.84-0.68,1.36c-0.15,0.51-0.23,1.05-0.23,1.6c0,0.57,0.08,1.12,0.23,1.65
		c0.15,0.53,0.38,1,0.68,1.4c0.3,0.41,0.68,0.73,1.14,0.98c0.46,0.24,1,0.37,1.63,0.37c0.53,0,1.01-0.1,1.44-0.3
		c0.43-0.2,0.78-0.52,1.05-0.97h0.03v1.05h2.14V88.26h-2.25V92.39z M187.2,96.45c-0.06,0.32-0.17,0.6-0.32,0.85
		c-0.15,0.25-0.35,0.45-0.6,0.6c-0.25,0.15-0.56,0.22-0.93,0.22c-0.35,0-0.65-0.08-0.9-0.23c-0.25-0.15-0.45-0.35-0.62-0.6
		c-0.16-0.25-0.28-0.53-0.36-0.85c-0.07-0.32-0.11-0.63-0.11-0.95c0-0.34,0.03-0.66,0.1-0.98c0.07-0.31,0.18-0.59,0.33-0.83
		c0.15-0.24,0.36-0.44,0.61-0.59c0.25-0.15,0.57-0.22,0.94-0.22c0.36,0,0.66,0.07,0.91,0.22c0.25,0.15,0.45,0.34,0.6,0.58
		c0.15,0.24,0.26,0.52,0.33,0.83c0.06,0.32,0.1,0.64,0.1,0.97C187.3,95.81,187.27,96.14,187.2,96.45z"/>
	<path class="st0" d="M198.07,92.66c-0.33-0.45-0.76-0.82-1.28-1.09c-0.52-0.27-1.13-0.4-1.83-0.4c-0.62,0-1.19,0.11-1.71,0.33
		c-0.51,0.22-0.96,0.53-1.33,0.91c-0.37,0.39-0.66,0.84-0.86,1.37c-0.2,0.53-0.3,1.1-0.3,1.71c0,0.64,0.1,1.22,0.29,1.75
		c0.2,0.53,0.47,0.98,0.83,1.37c0.36,0.38,0.8,0.68,1.32,0.89c0.52,0.21,1.1,0.32,1.75,0.32c0.93,0,1.73-0.22,2.38-0.65
		s1.14-1.14,1.46-2.11h-1.98c-0.07,0.25-0.28,0.49-0.6,0.72c-0.33,0.23-0.72,0.34-1.17,0.34c-0.64,0-1.12-0.17-1.46-0.5
		c-0.34-0.33-0.52-0.86-0.56-1.58h5.92c0.04-0.63-0.01-1.24-0.16-1.83C198.64,93.63,198.4,93.11,198.07,92.66z M193.03,94.61
		c0.01-0.16,0.04-0.34,0.1-0.54c0.06-0.2,0.16-0.39,0.3-0.57c0.14-0.18,0.33-0.33,0.57-0.45c0.24-0.12,0.54-0.18,0.9-0.18
		c0.55,0,0.96,0.15,1.23,0.44c0.27,0.3,0.46,0.73,0.56,1.3H193.03z"/>
	<path class="st0" d="M211.86,97.2c-0.43,0.47-1.02,0.71-1.79,0.71c-0.56,0-1.04-0.11-1.43-0.33c-0.39-0.22-0.71-0.51-0.95-0.87
		c-0.24-0.36-0.42-0.76-0.53-1.21c-0.11-0.45-0.17-0.91-0.17-1.39c0-0.5,0.06-0.98,0.17-1.44c0.11-0.47,0.29-0.88,0.53-1.25
		c0.24-0.37,0.56-0.66,0.95-0.87c0.39-0.22,0.87-0.33,1.43-0.33c0.31,0,0.6,0.05,0.88,0.15c0.28,0.1,0.53,0.24,0.75,0.42
		c0.22,0.18,0.41,0.39,0.56,0.63c0.15,0.24,0.24,0.5,0.29,0.79h2.41c-0.07-0.66-0.25-1.24-0.54-1.75c-0.29-0.51-0.65-0.93-1.09-1.28
		c-0.44-0.34-0.94-0.61-1.49-0.79c-0.56-0.18-1.15-0.27-1.77-0.27c-0.88,0-1.66,0.15-2.35,0.46c-0.69,0.31-1.27,0.73-1.75,1.27
		c-0.48,0.54-0.84,1.17-1.1,1.9c-0.25,0.73-0.38,1.51-0.38,2.35c0,0.81,0.13,1.58,0.38,2.3c0.25,0.72,0.62,1.34,1.1,1.87
		c0.48,0.53,1.06,0.95,1.75,1.25c0.69,0.31,1.47,0.46,2.35,0.46c0.7,0,1.34-0.11,1.92-0.33c0.58-0.22,1.09-0.53,1.52-0.93
		c0.43-0.4,0.78-0.89,1.05-1.46s0.43-1.21,0.49-1.92h-2.41C212.56,96.12,212.29,96.73,211.86,97.2z"/>
	<path class="st0" d="M223.6,92.48c-0.37-0.38-0.82-0.67-1.34-0.87c-0.52-0.21-1.11-0.31-1.75-0.31c-0.65,0-1.23,0.1-1.75,0.31
		c-0.52,0.21-0.96,0.5-1.33,0.87c-0.37,0.38-0.66,0.83-0.86,1.37c-0.2,0.53-0.3,1.13-0.3,1.79c0,0.66,0.1,1.25,0.3,1.78
		c0.2,0.53,0.49,0.98,0.86,1.36c0.37,0.38,0.81,0.67,1.33,0.87c0.52,0.21,1.1,0.31,1.75,0.31c0.65,0,1.23-0.1,1.75-0.31
		c0.52-0.21,0.97-0.5,1.34-0.87c0.37-0.38,0.66-0.83,0.86-1.36c0.2-0.53,0.3-1.12,0.3-1.78c0-0.66-0.1-1.25-0.3-1.79
		C224.26,93.31,223.97,92.86,223.6,92.48z M222.41,96.6c-0.06,0.31-0.17,0.59-0.33,0.84c-0.15,0.25-0.36,0.45-0.62,0.6
		c-0.26,0.15-0.58,0.22-0.96,0.22s-0.7-0.07-0.95-0.22c-0.25-0.15-0.46-0.35-0.61-0.6c-0.15-0.25-0.26-0.53-0.33-0.84
		c-0.06-0.31-0.1-0.63-0.1-0.96c0-0.33,0.03-0.65,0.1-0.97c0.06-0.32,0.17-0.6,0.33-0.84c0.15-0.24,0.36-0.44,0.61-0.6
		c0.25-0.15,0.57-0.23,0.95-0.23s0.7,0.08,0.96,0.23c0.26,0.15,0.47,0.35,0.62,0.6c0.15,0.24,0.26,0.52,0.33,0.84s0.1,0.64,0.1,0.97
		C222.51,95.96,222.48,96.28,222.41,96.6z"/>
	<path class="st0" d="M235.95,93.24c0.19,0.11,0.33,0.25,0.42,0.43c0.09,0.18,0.15,0.39,0.17,0.63c0.02,0.24,0.03,0.5,0.03,0.78
		v4.65h2.25v-5.49c0-0.53-0.07-0.98-0.22-1.36c-0.15-0.38-0.35-0.68-0.62-0.91c-0.26-0.23-0.58-0.4-0.95-0.51
		c-0.37-0.11-0.77-0.16-1.21-0.16c-0.57,0-1.07,0.14-1.48,0.41c-0.42,0.28-0.75,0.59-0.99,0.95c-0.22-0.5-0.55-0.85-0.98-1.06
		c-0.43-0.21-0.9-0.31-1.42-0.31c-0.54,0-1.02,0.12-1.44,0.35c-0.42,0.23-0.78,0.56-1.07,0.98h-0.03v-1.11h-2.13v8.21h2.25v-4.76
		c0-0.4,0.06-0.73,0.17-0.98c0.12-0.25,0.26-0.44,0.42-0.57c0.16-0.13,0.33-0.22,0.5-0.27c0.17-0.05,0.31-0.07,0.43-0.07
		c0.36,0,0.63,0.06,0.82,0.18c0.19,0.12,0.32,0.28,0.4,0.48c0.08,0.2,0.12,0.42,0.13,0.67c0.01,0.24,0.02,0.48,0.02,0.71v4.6h2.25
		v-4.57c0-0.25,0.02-0.5,0.06-0.75c0.04-0.25,0.11-0.47,0.22-0.67s0.26-0.35,0.46-0.48c0.2-0.12,0.45-0.18,0.77-0.18
		C235.51,93.08,235.76,93.13,235.95,93.24z"/>
	<path class="st0" d="M246.11,98.59h0.05v1.14h2.14v-8.21h-2.25v4.3c0,0.84-0.14,1.44-0.41,1.8c-0.28,0.37-0.72,0.55-1.33,0.55
		c-0.53,0-0.9-0.17-1.12-0.5c-0.22-0.33-0.33-0.84-0.33-1.52v-4.64h-2.25v5.05c0,0.51,0.04,0.97,0.14,1.39
		c0.09,0.42,0.25,0.77,0.47,1.06c0.22,0.29,0.53,0.52,0.91,0.68c0.39,0.16,0.88,0.25,1.48,0.25c0.48,0,0.94-0.11,1.4-0.33
		C245.46,99.4,245.83,99.05,246.11,98.59z"/>
	<path class="st0" d="M255.14,93.58c0.22,0.33,0.33,0.84,0.33,1.52v4.64h2.25v-5.05c0-0.51-0.04-0.97-0.13-1.39
		c-0.09-0.42-0.25-0.77-0.47-1.06c-0.22-0.29-0.53-0.52-0.91-0.68c-0.39-0.16-0.88-0.25-1.48-0.25c-0.48,0-0.94,0.11-1.4,0.33
		c-0.46,0.22-0.83,0.57-1.11,1.03h-0.05v-1.14h-2.14v8.21h2.25v-4.3c0-0.84,0.14-1.44,0.41-1.8c0.28-0.37,0.72-0.55,1.33-0.55
		C254.55,93.08,254.92,93.25,255.14,93.58z"/>
	<rect x="259.5" y="91.52" class="st0" width="2.25" height="8.21"/>
	<rect x="259.5" y="88.4" class="st0" width="2.25" height="1.86"/>
	<path class="st0" d="M264.13,89.06v2.46h-1.37v1.51h1.37v4.84c0,0.41,0.07,0.75,0.21,1c0.14,0.25,0.33,0.45,0.56,0.6
		s0.51,0.24,0.83,0.29c0.31,0.05,0.64,0.07,0.99,0.07c0.22,0,0.45-0.01,0.68-0.02c0.23-0.01,0.44-0.03,0.64-0.06v-1.76
		c-0.21,0.04-0.44,0.06-0.7,0.06c-0.38,0-0.63-0.06-0.76-0.19c-0.13-0.13-0.19-0.38-0.19-0.76v-4.06h1.65v-1.51h-1.65v-2.46H264.13z
		"/>
	<polygon class="st0" points="275.64,88.25 273.15,88.25 271.62,90.51 273.19,90.51 	"/>
	<path class="st0" d="M276.48,97.91v-4.27c0-0.49-0.11-0.88-0.33-1.19c-0.22-0.31-0.51-0.55-0.86-0.71
		c-0.35-0.17-0.74-0.28-1.16-0.34c-0.42-0.06-0.84-0.09-1.25-0.09c-0.47,0-0.92,0.05-1.37,0.14s-0.85,0.24-1.21,0.45
		c-0.36,0.21-0.66,0.49-0.89,0.84c-0.23,0.35-0.37,0.79-0.4,1.32h2.25c0.04-0.44,0.19-0.76,0.45-0.95c0.26-0.19,0.61-0.29,1.04-0.29
		c0.2,0,0.39,0.01,0.56,0.04c0.17,0.03,0.33,0.08,0.46,0.16c0.13,0.08,0.24,0.19,0.32,0.33c0.08,0.14,0.12,0.34,0.12,0.58
		c0,0.23-0.07,0.41-0.22,0.53c-0.15,0.12-0.35,0.21-0.6,0.28c-0.25,0.06-0.53,0.11-0.85,0.14c-0.32,0.03-0.65,0.07-1,0.13
		c-0.35,0.05-0.69,0.12-1.02,0.21c-0.33,0.09-0.63,0.23-0.9,0.4c-0.26,0.18-0.48,0.42-0.63,0.72c-0.16,0.3-0.24,0.69-0.24,1.15
		c0,0.42,0.07,0.79,0.21,1.1c0.14,0.31,0.34,0.56,0.6,0.76c0.25,0.2,0.55,0.35,0.89,0.45c0.34,0.1,0.7,0.15,1.1,0.15
		c0.51,0,1.01-0.08,1.49-0.23s0.91-0.42,1.27-0.79c0.01,0.14,0.03,0.27,0.06,0.4c0.03,0.13,0.06,0.26,0.1,0.39h2.29
		c-0.11-0.17-0.18-0.42-0.22-0.76C276.5,98.63,276.48,98.28,276.48,97.91z M274.23,96.56c0,0.13-0.01,0.3-0.04,0.51
		c-0.03,0.21-0.1,0.42-0.21,0.63c-0.12,0.21-0.3,0.38-0.54,0.53c-0.24,0.15-0.59,0.22-1.03,0.22c-0.18,0-0.35-0.02-0.52-0.05
		c-0.17-0.03-0.32-0.09-0.44-0.17c-0.13-0.08-0.23-0.19-0.3-0.32c-0.07-0.13-0.11-0.3-0.11-0.52c0-0.2,0.04-0.37,0.11-0.52
		c0.07-0.14,0.17-0.26,0.29-0.35c0.12-0.09,0.26-0.16,0.42-0.21c0.16-0.05,0.33-0.1,0.51-0.13c0.17-0.03,0.35-0.06,0.53-0.08
		c0.19-0.02,0.36-0.05,0.52-0.08c0.16-0.03,0.32-0.07,0.46-0.12c0.14-0.05,0.26-0.11,0.36-0.2V96.56z"/>
	<path class="st0" d="M282.2,91.43c-0.27,0.08-0.52,0.2-0.75,0.36c-0.23,0.15-0.44,0.34-0.62,0.56c-0.18,0.22-0.32,0.45-0.43,0.71
		h-0.03v-1.52h-2.14v8.21h2.25v-3.7c0-0.36,0.04-0.7,0.11-1.02c0.07-0.32,0.2-0.6,0.37-0.84c0.17-0.24,0.4-0.43,0.69-0.56
		c0.29-0.14,0.64-0.21,1.05-0.21c0.14,0,0.28,0.01,0.43,0.02c0.15,0.02,0.27,0.03,0.38,0.06v-2.1c-0.16-0.05-0.32-0.08-0.49-0.08
		C282.75,91.3,282.47,91.34,282.2,91.43z"/>
	<rect x="284.47" y="88.4" class="st0" width="2.25" height="1.86"/>
	<rect x="284.47" y="91.52" class="st0" width="2.25" height="8.21"/>
	<path class="st0" d="M295.86,97.91v-4.27c0-0.49-0.11-0.88-0.33-1.19s-0.51-0.55-0.86-0.71c-0.35-0.17-0.74-0.28-1.16-0.34
		c-0.42-0.06-0.84-0.09-1.25-0.09c-0.47,0-0.92,0.05-1.37,0.14c-0.44,0.09-0.85,0.24-1.21,0.45c-0.36,0.21-0.66,0.49-0.89,0.84
		c-0.23,0.35-0.36,0.79-0.4,1.32h2.25c0.04-0.44,0.19-0.76,0.45-0.95c0.26-0.19,0.61-0.29,1.04-0.29c0.2,0,0.39,0.01,0.56,0.04
		c0.17,0.03,0.33,0.08,0.46,0.16c0.13,0.08,0.24,0.19,0.32,0.33c0.08,0.14,0.12,0.34,0.12,0.58c0,0.23-0.07,0.41-0.22,0.53
		c-0.15,0.12-0.35,0.21-0.6,0.28c-0.25,0.06-0.53,0.11-0.85,0.14c-0.32,0.03-0.65,0.07-1,0.13c-0.35,0.05-0.69,0.12-1.02,0.21
		c-0.33,0.09-0.63,0.23-0.9,0.4c-0.26,0.18-0.48,0.42-0.64,0.72c-0.16,0.3-0.24,0.69-0.24,1.15c0,0.42,0.07,0.79,0.21,1.1
		c0.14,0.31,0.34,0.56,0.6,0.76s0.55,0.35,0.89,0.45c0.34,0.1,0.7,0.15,1.1,0.15c0.51,0,1.01-0.08,1.49-0.23
		c0.49-0.15,0.91-0.42,1.27-0.79c0.01,0.14,0.03,0.27,0.06,0.4c0.03,0.13,0.06,0.26,0.1,0.39h2.29c-0.11-0.17-0.18-0.42-0.22-0.76
		C295.88,98.63,295.86,98.28,295.86,97.91z M293.61,96.56c0,0.13-0.01,0.3-0.04,0.51c-0.03,0.21-0.1,0.42-0.21,0.63
		c-0.12,0.21-0.3,0.38-0.54,0.53s-0.59,0.22-1.03,0.22c-0.18,0-0.35-0.02-0.52-0.05c-0.17-0.03-0.32-0.09-0.44-0.17
		c-0.13-0.08-0.23-0.19-0.3-0.32c-0.07-0.13-0.11-0.3-0.11-0.52c0-0.2,0.04-0.37,0.11-0.52c0.07-0.14,0.17-0.26,0.29-0.35
		c0.12-0.09,0.26-0.16,0.42-0.21c0.16-0.05,0.33-0.1,0.51-0.13c0.17-0.03,0.35-0.06,0.53-0.08c0.19-0.02,0.36-0.05,0.52-0.08
		c0.16-0.03,0.32-0.07,0.46-0.12c0.14-0.05,0.26-0.11,0.36-0.2V96.56z"/>
	<path class="st0" d="M106.77,106.59h-0.03c-0.26-0.4-0.6-0.71-1.04-0.92c-0.44-0.21-0.91-0.31-1.39-0.31
		c-0.61,0-1.14,0.12-1.59,0.36c-0.46,0.24-0.84,0.56-1.14,0.95c-0.3,0.39-0.53,0.85-0.69,1.36c-0.15,0.52-0.23,1.05-0.23,1.6
		c0,0.57,0.08,1.13,0.23,1.66c0.15,0.53,0.38,1,0.69,1.41c0.3,0.41,0.69,0.74,1.15,0.98c0.46,0.24,1.01,0.37,1.63,0.37
		c0.53,0,1.02-0.1,1.45-0.3c0.44-0.2,0.79-0.53,1.05-0.97h0.03v1.05h2.15v-11.38h-2.26V106.59z M106.76,110.67
		c-0.06,0.32-0.17,0.6-0.32,0.85c-0.15,0.25-0.35,0.45-0.6,0.6c-0.25,0.15-0.56,0.22-0.93,0.22c-0.35,0-0.65-0.08-0.9-0.23
		c-0.25-0.15-0.46-0.36-0.62-0.61c-0.16-0.25-0.28-0.53-0.36-0.85c-0.07-0.32-0.11-0.64-0.11-0.96c0-0.34,0.03-0.67,0.1-0.98
		c0.07-0.31,0.18-0.59,0.33-0.84c0.15-0.24,0.36-0.44,0.61-0.59c0.26-0.15,0.57-0.22,0.94-0.22c0.36,0,0.67,0.07,0.92,0.22
		c0.25,0.15,0.45,0.34,0.61,0.58s0.26,0.52,0.33,0.84c0.06,0.32,0.1,0.64,0.1,0.97C106.85,110.02,106.82,110.35,106.76,110.67z"/>
	<path class="st0" d="M118.14,111.99v-4.29c0-0.49-0.11-0.89-0.33-1.2c-0.22-0.31-0.51-0.55-0.86-0.72
		c-0.35-0.17-0.74-0.28-1.16-0.34c-0.43-0.06-0.84-0.09-1.26-0.09c-0.47,0-0.92,0.05-1.37,0.14c-0.45,0.09-0.85,0.24-1.21,0.45
		c-0.36,0.21-0.66,0.49-0.89,0.84c-0.23,0.35-0.37,0.79-0.4,1.32h2.26c0.04-0.45,0.19-0.77,0.45-0.96c0.26-0.19,0.61-0.29,1.04-0.29
		c0.2,0,0.39,0.01,0.57,0.04c0.18,0.03,0.33,0.08,0.46,0.16s0.24,0.19,0.32,0.33c0.08,0.14,0.12,0.34,0.12,0.58
		c0,0.23-0.07,0.41-0.22,0.53c-0.15,0.12-0.35,0.21-0.6,0.28c-0.25,0.06-0.53,0.11-0.85,0.14c-0.32,0.03-0.65,0.07-1,0.13
		c-0.35,0.05-0.69,0.12-1.03,0.21c-0.34,0.09-0.64,0.23-0.9,0.41c-0.27,0.18-0.48,0.42-0.64,0.73c-0.16,0.3-0.24,0.69-0.24,1.16
		c0,0.43,0.07,0.79,0.22,1.1c0.14,0.31,0.34,0.56,0.6,0.77c0.26,0.2,0.55,0.35,0.89,0.45c0.34,0.1,0.71,0.15,1.1,0.15
		c0.51,0,1.01-0.08,1.5-0.23c0.49-0.15,0.91-0.42,1.28-0.79c0.01,0.14,0.03,0.27,0.06,0.41c0.03,0.13,0.06,0.26,0.1,0.39h2.3
		c-0.11-0.17-0.18-0.43-0.22-0.77C118.16,112.72,118.14,112.36,118.14,111.99z M115.88,110.63c0,0.13-0.01,0.3-0.04,0.51
		c-0.03,0.21-0.1,0.42-0.22,0.63c-0.12,0.21-0.3,0.39-0.54,0.53c-0.24,0.15-0.59,0.22-1.04,0.22c-0.18,0-0.36-0.02-0.53-0.05
		c-0.17-0.03-0.32-0.09-0.45-0.17c-0.13-0.08-0.23-0.19-0.3-0.32c-0.07-0.13-0.11-0.31-0.11-0.52c0-0.2,0.04-0.37,0.11-0.52
		s0.17-0.26,0.29-0.35c0.12-0.09,0.26-0.16,0.42-0.22c0.16-0.05,0.33-0.1,0.51-0.13c0.17-0.03,0.35-0.06,0.53-0.08
		s0.36-0.05,0.53-0.08c0.16-0.03,0.32-0.07,0.46-0.12c0.14-0.05,0.26-0.11,0.36-0.2V110.63z"/>
	<path class="st0" d="M133.28,112.47c-0.03-0.25-0.05-0.49-0.06-0.74c-0.01-0.24-0.02-0.45-0.03-0.64
		c-0.02-0.29-0.06-0.57-0.12-0.85c-0.06-0.28-0.15-0.54-0.28-0.79c-0.13-0.24-0.29-0.45-0.49-0.63c-0.2-0.17-0.46-0.3-0.76-0.39
		v-0.03c0.64-0.25,1.09-0.62,1.37-1.11c0.28-0.49,0.42-1.06,0.42-1.73c0-0.42-0.08-0.83-0.23-1.21s-0.38-0.71-0.67-1
		c-0.29-0.29-0.64-0.51-1.05-0.67c-0.41-0.16-0.86-0.25-1.37-0.25h-6.11v11.33h2.49v-4.43h2.49c0.62,0,1.07,0.14,1.35,0.41
		c0.28,0.28,0.45,0.71,0.54,1.3c0.03,0.22,0.06,0.46,0.07,0.71c0.02,0.25,0.04,0.49,0.06,0.73s0.06,0.47,0.1,0.68
		c0.04,0.22,0.09,0.42,0.17,0.6h2.49c-0.12-0.16-0.2-0.35-0.26-0.59C133.35,112.95,133.3,112.71,133.28,112.47z M130.4,107.19
		c-0.29,0.25-0.72,0.38-1.28,0.38h-2.73v-3.19h2.73c0.56,0,0.99,0.12,1.28,0.37c0.29,0.25,0.44,0.65,0.44,1.2
		C130.84,106.52,130.7,106.93,130.4,107.19z"/>
	<path class="st0" d="M142.75,108.39c-0.15-0.58-0.39-1.1-0.72-1.56c-0.33-0.45-0.76-0.82-1.28-1.09c-0.52-0.27-1.13-0.4-1.83-0.4
		c-0.62,0-1.19,0.11-1.71,0.33c-0.51,0.22-0.96,0.53-1.33,0.91c-0.37,0.39-0.66,0.84-0.86,1.37c-0.2,0.53-0.3,1.1-0.3,1.71
		c0,0.64,0.1,1.22,0.29,1.75c0.2,0.53,0.47,0.98,0.83,1.37c0.36,0.38,0.8,0.68,1.32,0.89c0.52,0.21,1.1,0.32,1.75,0.32
		c0.93,0,1.73-0.22,2.38-0.65c0.66-0.43,1.14-1.14,1.46-2.11h-1.98c-0.07,0.25-0.28,0.49-0.6,0.72c-0.33,0.23-0.72,0.34-1.17,0.34
		c-0.64,0-1.12-0.17-1.46-0.5c-0.34-0.33-0.52-0.86-0.56-1.58h5.92C142.95,109.58,142.89,108.98,142.75,108.39z M136.98,108.79
		c0.01-0.16,0.05-0.34,0.1-0.54c0.06-0.2,0.16-0.39,0.3-0.57c0.14-0.18,0.33-0.33,0.57-0.45c0.24-0.12,0.54-0.18,0.9-0.18
		c0.55,0,0.96,0.15,1.23,0.44c0.27,0.3,0.46,0.73,0.56,1.3H136.98z"/>
	<path class="st0" d="M149.99,106.66h-0.03c-0.28-0.48-0.62-0.82-1.02-1.02c-0.41-0.2-0.88-0.3-1.42-0.3
		c-0.57,0-1.08,0.11-1.52,0.33c-0.44,0.22-0.81,0.52-1.1,0.9c-0.3,0.38-0.52,0.81-0.67,1.3c-0.15,0.49-0.23,1-0.23,1.53
		c0,0.56,0.07,1.09,0.2,1.6c0.13,0.5,0.34,0.94,0.63,1.32c0.29,0.38,0.65,0.67,1.1,0.89c0.44,0.22,0.97,0.33,1.59,0.33
		c0.5,0,0.97-0.1,1.42-0.31c0.45-0.21,0.8-0.53,1.04-0.96h0.03v1.08c0.01,0.59-0.13,1.08-0.43,1.46c-0.3,0.38-0.76,0.57-1.38,0.57
		c-0.4,0-0.76-0.08-1.06-0.25c-0.31-0.16-0.51-0.46-0.62-0.88h-2.24c0.03,0.47,0.16,0.87,0.39,1.2c0.23,0.33,0.51,0.61,0.86,0.82
		c0.34,0.21,0.72,0.37,1.14,0.47c0.42,0.1,0.83,0.15,1.23,0.15c0.62,0,1.16-0.06,1.62-0.17c0.46-0.12,0.84-0.27,1.16-0.47
		c0.32-0.2,0.57-0.42,0.76-0.67c0.19-0.25,0.34-0.51,0.44-0.78c0.11-0.27,0.18-0.54,0.21-0.81c0.04-0.27,0.06-0.52,0.06-0.74v-7.68
		h-2.14V106.66z M149.87,110.42c-0.08,0.27-0.2,0.51-0.36,0.72c-0.16,0.21-0.36,0.38-0.6,0.51c-0.24,0.13-0.52,0.19-0.84,0.19
		c-0.35,0-0.64-0.07-0.87-0.22c-0.23-0.15-0.42-0.34-0.56-0.57c-0.14-0.23-0.24-0.49-0.3-0.79c-0.06-0.29-0.09-0.58-0.09-0.88
		c0-0.31,0.03-0.6,0.1-0.88c0.07-0.28,0.18-0.53,0.33-0.75c0.15-0.22,0.34-0.39,0.57-0.52c0.23-0.13,0.5-0.19,0.82-0.19
		c0.36,0,0.66,0.07,0.91,0.21c0.25,0.14,0.45,0.32,0.6,0.56c0.15,0.23,0.25,0.5,0.32,0.81c0.06,0.31,0.1,0.62,0.1,0.95
		C149.99,109.86,149.95,110.15,149.87,110.42z"/>
	<rect x="154" y="102.44" class="st0" width="2.25" height="1.86"/>
	<rect x="154" y="105.57" class="st0" width="2.25" height="8.21"/>
	<path class="st0" d="M159.95,102.62c-0.23,0.12-0.42,0.27-0.57,0.45c-0.15,0.19-0.26,0.39-0.35,0.62
		c-0.08,0.23-0.15,0.46-0.21,0.69h0.97c0.05-0.2,0.12-0.36,0.21-0.48c0.09-0.12,0.24-0.18,0.45-0.18c0.18,0,0.36,0.03,0.54,0.08
		c0.18,0.05,0.37,0.12,0.57,0.19c0.2,0.06,0.41,0.12,0.62,0.18c0.21,0.06,0.44,0.09,0.68,0.09c0.33,0,0.59-0.06,0.79-0.18
		c0.2-0.12,0.37-0.27,0.49-0.45c0.13-0.18,0.23-0.38,0.3-0.59c0.07-0.21,0.14-0.41,0.19-0.59h-1.1c0.01,0.15-0.04,0.28-0.14,0.39
		c-0.11,0.11-0.28,0.17-0.52,0.17c-0.18,0-0.36-0.03-0.53-0.09c-0.17-0.06-0.35-0.12-0.52-0.2c-0.17-0.06-0.34-0.12-0.5-0.18
		c-0.16-0.06-0.34-0.09-0.52-0.09C160.48,102.44,160.19,102.5,159.95,102.62z"/>
	<path class="st0" d="M165.4,111.95v-4.27c0-0.49-0.11-0.88-0.33-1.19c-0.22-0.31-0.51-0.54-0.86-0.71
		c-0.35-0.17-0.74-0.28-1.16-0.34c-0.42-0.06-0.84-0.09-1.25-0.09c-0.47,0-0.92,0.05-1.37,0.14c-0.44,0.09-0.85,0.24-1.21,0.45
		c-0.36,0.21-0.66,0.49-0.89,0.84c-0.23,0.35-0.36,0.79-0.4,1.32h2.25c0.04-0.44,0.19-0.76,0.45-0.95c0.26-0.19,0.61-0.29,1.04-0.29
		c0.2,0,0.39,0.01,0.56,0.04c0.17,0.03,0.33,0.08,0.46,0.16c0.13,0.08,0.24,0.19,0.32,0.33c0.08,0.14,0.12,0.34,0.12,0.58
		c0,0.23-0.07,0.41-0.22,0.53c-0.15,0.12-0.35,0.21-0.6,0.28c-0.25,0.06-0.53,0.11-0.85,0.14c-0.32,0.03-0.65,0.07-1,0.13
		s-0.69,0.12-1.02,0.21c-0.33,0.09-0.63,0.22-0.9,0.4s-0.48,0.42-0.63,0.72c-0.16,0.3-0.24,0.69-0.24,1.15
		c0,0.42,0.07,0.79,0.21,1.09c0.14,0.31,0.34,0.56,0.6,0.76c0.25,0.2,0.55,0.35,0.89,0.45c0.34,0.1,0.7,0.15,1.1,0.15
		c0.51,0,1.01-0.08,1.49-0.23c0.49-0.15,0.91-0.42,1.27-0.79c0.01,0.14,0.03,0.27,0.06,0.4c0.03,0.13,0.06,0.26,0.1,0.39h2.29
		c-0.11-0.17-0.18-0.42-0.22-0.76C165.42,112.67,165.4,112.32,165.4,111.95z M163.15,110.6c0,0.13-0.01,0.3-0.04,0.51
		c-0.03,0.21-0.1,0.42-0.21,0.63c-0.12,0.21-0.3,0.38-0.54,0.53c-0.24,0.15-0.59,0.22-1.03,0.22c-0.18,0-0.35-0.02-0.52-0.05
		c-0.17-0.03-0.32-0.09-0.44-0.17s-0.23-0.19-0.3-0.32c-0.07-0.13-0.11-0.3-0.11-0.52c0-0.2,0.04-0.37,0.11-0.52
		c0.07-0.14,0.17-0.26,0.29-0.35c0.12-0.09,0.26-0.16,0.42-0.21c0.16-0.05,0.33-0.1,0.51-0.13c0.17-0.03,0.35-0.06,0.53-0.08
		c0.19-0.02,0.36-0.05,0.52-0.08c0.16-0.03,0.32-0.07,0.46-0.12c0.14-0.05,0.26-0.11,0.36-0.2V110.6z"/>
	<path class="st0" d="M174.23,106.53c-0.37-0.38-0.82-0.67-1.34-0.87c-0.52-0.21-1.11-0.31-1.75-0.31c-0.65,0-1.23,0.1-1.75,0.31
		c-0.52,0.21-0.96,0.5-1.33,0.87c-0.37,0.38-0.66,0.83-0.86,1.36c-0.2,0.53-0.3,1.13-0.3,1.79c0,0.66,0.1,1.25,0.3,1.78
		c0.2,0.53,0.49,0.98,0.86,1.36c0.37,0.38,0.81,0.67,1.33,0.87c0.52,0.21,1.1,0.31,1.75,0.31c0.65,0,1.23-0.1,1.75-0.31
		c0.52-0.21,0.97-0.5,1.34-0.87c0.37-0.38,0.66-0.83,0.86-1.36c0.2-0.53,0.3-1.12,0.3-1.78c0-0.66-0.1-1.25-0.3-1.79
		C174.88,107.36,174.6,106.9,174.23,106.53z M173.03,110.64c-0.06,0.31-0.17,0.59-0.33,0.84c-0.15,0.25-0.36,0.45-0.62,0.6
		c-0.26,0.15-0.58,0.22-0.96,0.22c-0.38,0-0.7-0.07-0.95-0.22c-0.25-0.15-0.46-0.35-0.61-0.6c-0.15-0.25-0.26-0.53-0.33-0.84
		c-0.06-0.31-0.1-0.63-0.1-0.96c0-0.33,0.03-0.65,0.1-0.97c0.06-0.32,0.17-0.6,0.33-0.84c0.15-0.24,0.36-0.44,0.61-0.6
		c0.25-0.15,0.57-0.23,0.95-0.23c0.38,0,0.7,0.08,0.96,0.23c0.26,0.15,0.47,0.35,0.62,0.6c0.15,0.24,0.26,0.52,0.33,0.84
		c0.06,0.32,0.09,0.64,0.09,0.97C173.13,110.01,173.1,110.33,173.03,110.64z"/>
	<path class="st0" d="M187.22,106.84h-0.03c-0.25-0.4-0.6-0.71-1.04-0.91c-0.44-0.21-0.9-0.31-1.39-0.31c-0.6,0-1.13,0.12-1.59,0.36
		s-0.83,0.55-1.13,0.94c-0.3,0.39-0.53,0.84-0.68,1.36c-0.15,0.51-0.23,1.05-0.23,1.6c0,0.57,0.08,1.12,0.23,1.65
		c0.15,0.53,0.38,1,0.68,1.41c0.3,0.41,0.68,0.73,1.14,0.98c0.46,0.24,1,0.36,1.63,0.36c0.53,0,1.01-0.1,1.44-0.3
		c0.43-0.2,0.78-0.52,1.05-0.97h0.03v1.05h2.14v-11.33h-2.25V106.84z M187.2,110.9c-0.06,0.32-0.17,0.6-0.32,0.85
		c-0.15,0.25-0.35,0.45-0.6,0.6c-0.25,0.15-0.56,0.22-0.93,0.22c-0.35,0-0.65-0.08-0.9-0.23c-0.25-0.15-0.46-0.35-0.62-0.6
		c-0.16-0.25-0.28-0.53-0.36-0.85c-0.07-0.32-0.11-0.64-0.11-0.95c0-0.34,0.03-0.66,0.1-0.98s0.18-0.59,0.33-0.83
		c0.15-0.24,0.36-0.44,0.61-0.59c0.25-0.15,0.57-0.22,0.94-0.22c0.36,0,0.66,0.07,0.91,0.22c0.25,0.15,0.45,0.34,0.6,0.58
		c0.15,0.24,0.26,0.52,0.33,0.83c0.06,0.32,0.1,0.64,0.1,0.97C187.3,110.26,187.27,110.58,187.2,110.9z"/>
	<path class="st0" d="M198.79,108.66c-0.15-0.58-0.39-1.1-0.72-1.56c-0.33-0.45-0.76-0.82-1.28-1.09c-0.52-0.27-1.13-0.4-1.83-0.4
		c-0.62,0-1.19,0.11-1.71,0.33c-0.51,0.22-0.96,0.53-1.33,0.91c-0.37,0.39-0.66,0.84-0.86,1.37c-0.2,0.53-0.3,1.1-0.3,1.71
		c0,0.64,0.1,1.22,0.29,1.75c0.2,0.53,0.47,0.98,0.83,1.37c0.36,0.38,0.8,0.68,1.32,0.89c0.52,0.21,1.1,0.32,1.75,0.32
		c0.93,0,1.73-0.22,2.38-0.65c0.66-0.43,1.14-1.14,1.46-2.11h-1.98c-0.07,0.25-0.28,0.49-0.6,0.72c-0.33,0.23-0.72,0.34-1.17,0.34
		c-0.63,0-1.12-0.17-1.46-0.5c-0.34-0.33-0.52-0.86-0.56-1.58h5.92C198.99,109.85,198.94,109.25,198.79,108.66z M193.03,109.06
		c0.01-0.16,0.04-0.34,0.1-0.54c0.06-0.2,0.16-0.39,0.3-0.57c0.14-0.18,0.33-0.33,0.57-0.45c0.24-0.12,0.54-0.18,0.9-0.18
		c0.55,0,0.96,0.15,1.23,0.44c0.27,0.3,0.46,0.73,0.56,1.3H193.03z"/>
	<path class="st0" d="M211.8,111.51c-0.43,0.47-1.02,0.71-1.79,0.71c-0.56,0-1.04-0.11-1.43-0.33c-0.39-0.22-0.71-0.5-0.95-0.86
		c-0.24-0.36-0.42-0.76-0.53-1.21c-0.11-0.45-0.17-0.91-0.17-1.39c0-0.5,0.06-0.98,0.17-1.44c0.11-0.47,0.29-0.88,0.53-1.25
		c0.24-0.37,0.56-0.66,0.95-0.87c0.39-0.22,0.87-0.33,1.43-0.33c0.31,0,0.6,0.05,0.88,0.15c0.28,0.1,0.53,0.24,0.75,0.42
		c0.22,0.18,0.41,0.39,0.56,0.63c0.15,0.24,0.24,0.5,0.29,0.79h2.41c-0.07-0.66-0.25-1.24-0.54-1.75c-0.29-0.51-0.65-0.93-1.09-1.28
		c-0.44-0.34-0.94-0.61-1.49-0.79s-1.15-0.27-1.77-0.27c-0.88,0-1.66,0.15-2.35,0.46c-0.69,0.31-1.27,0.73-1.75,1.27
		c-0.48,0.54-0.84,1.17-1.1,1.9c-0.25,0.73-0.38,1.51-0.38,2.35c0,0.81,0.13,1.58,0.38,2.3c0.25,0.72,0.62,1.34,1.1,1.87
		c0.48,0.53,1.06,0.95,1.75,1.25c0.69,0.31,1.47,0.46,2.35,0.46c0.7,0,1.34-0.11,1.92-0.33c0.58-0.22,1.09-0.53,1.52-0.93
		c0.43-0.4,0.78-0.89,1.05-1.46c0.26-0.57,0.43-1.21,0.49-1.92h-2.41C212.49,110.43,212.23,111.04,211.8,111.51z"/>
	<path class="st0" d="M223.55,106.54c-0.22-0.29-0.53-0.52-0.91-0.68c-0.39-0.16-0.88-0.25-1.48-0.25c-0.42,0-0.86,0.11-1.3,0.33
		c-0.44,0.22-0.81,0.57-1.1,1.03h-0.05v-4.27h-2.25v11.33h2.25v-4.3c0-0.84,0.14-1.44,0.41-1.8c0.28-0.37,0.72-0.55,1.33-0.55
		c0.53,0,0.9,0.17,1.12,0.5c0.22,0.33,0.33,0.84,0.33,1.52v4.64h2.25V109c0-0.51-0.05-0.97-0.13-1.39
		C223.93,107.19,223.78,106.83,223.55,106.54z"/>
	<path class="st0" d="M233.24,112.22v-4.27c0-0.49-0.11-0.88-0.33-1.19c-0.22-0.31-0.51-0.54-0.86-0.71
		c-0.35-0.17-0.74-0.28-1.16-0.34c-0.42-0.06-0.84-0.09-1.25-0.09c-0.47,0-0.92,0.05-1.37,0.13c-0.44,0.09-0.85,0.24-1.21,0.45
		c-0.36,0.21-0.66,0.49-0.89,0.84c-0.23,0.35-0.36,0.79-0.4,1.32h2.25c0.04-0.44,0.19-0.76,0.45-0.95c0.26-0.19,0.61-0.29,1.04-0.29
		c0.2,0,0.39,0.01,0.56,0.04c0.17,0.03,0.33,0.08,0.46,0.16c0.13,0.08,0.24,0.19,0.32,0.33c0.08,0.14,0.12,0.34,0.12,0.58
		c0,0.23-0.07,0.41-0.22,0.53c-0.15,0.12-0.35,0.21-0.6,0.28c-0.25,0.06-0.53,0.11-0.85,0.14c-0.32,0.03-0.65,0.07-1,0.13
		c-0.35,0.05-0.69,0.12-1.02,0.21c-0.33,0.09-0.63,0.22-0.9,0.4c-0.26,0.18-0.48,0.42-0.64,0.72c-0.16,0.3-0.24,0.69-0.24,1.15
		c0,0.42,0.07,0.79,0.21,1.1c0.14,0.31,0.34,0.56,0.6,0.76c0.25,0.2,0.55,0.35,0.89,0.45c0.34,0.1,0.7,0.15,1.1,0.15
		c0.51,0,1.01-0.08,1.49-0.23c0.49-0.15,0.91-0.42,1.27-0.79c0.01,0.14,0.03,0.27,0.06,0.41c0.03,0.13,0.06,0.26,0.1,0.39h2.29
		c-0.11-0.17-0.18-0.42-0.22-0.76S233.24,112.59,233.24,112.22z M230.98,110.87c0,0.13-0.01,0.3-0.04,0.51
		c-0.03,0.21-0.1,0.42-0.21,0.63c-0.12,0.21-0.3,0.38-0.54,0.53c-0.24,0.15-0.59,0.22-1.03,0.22c-0.18,0-0.36-0.02-0.52-0.05
		c-0.17-0.03-0.32-0.09-0.44-0.17c-0.13-0.08-0.23-0.18-0.3-0.32c-0.07-0.13-0.11-0.3-0.11-0.52c0-0.2,0.04-0.37,0.11-0.52
		c0.07-0.14,0.17-0.26,0.29-0.35c0.12-0.09,0.26-0.16,0.42-0.21c0.16-0.05,0.33-0.1,0.51-0.13c0.17-0.03,0.35-0.06,0.53-0.08
		c0.19-0.02,0.36-0.05,0.52-0.08c0.16-0.03,0.32-0.07,0.46-0.12c0.14-0.05,0.26-0.11,0.36-0.2V110.87z"/>
	<path class="st0" d="M242.43,106.95c-0.31-0.4-0.69-0.72-1.16-0.97c-0.47-0.24-1.02-0.37-1.67-0.37c-0.51,0-0.97,0.1-1.4,0.3
		c-0.42,0.2-0.77,0.52-1.05,0.97h-0.03v-1.05h-2.14v11.1h2.25v-3.91h0.03c0.27,0.4,0.63,0.71,1.06,0.92c0.43,0.21,0.9,0.32,1.4,0.32
		c0.6,0,1.13-0.12,1.58-0.36c0.45-0.24,0.83-0.55,1.13-0.94c0.3-0.39,0.53-0.84,0.67-1.35c0.15-0.51,0.22-1.04,0.22-1.59
		c0-0.58-0.07-1.14-0.22-1.67C242.96,107.82,242.74,107.35,242.43,106.95z M240.98,110.94c-0.06,0.31-0.17,0.59-0.33,0.83
		c-0.15,0.24-0.35,0.43-0.6,0.58c-0.25,0.15-0.56,0.22-0.93,0.22c-0.37,0-0.68-0.07-0.93-0.22c-0.25-0.15-0.45-0.34-0.6-0.58
		c-0.15-0.24-0.26-0.51-0.33-0.83c-0.07-0.31-0.1-0.64-0.1-0.98c0-0.33,0.03-0.65,0.1-0.98c0.06-0.32,0.17-0.61,0.33-0.85
		c0.15-0.24,0.35-0.44,0.6-0.6c0.25-0.15,0.56-0.23,0.93-0.23c0.36,0,0.66,0.08,0.91,0.23c0.25,0.15,0.45,0.35,0.61,0.6
		c0.16,0.25,0.27,0.53,0.34,0.85c0.07,0.32,0.1,0.64,0.1,0.97C241.08,110.3,241.05,110.63,240.98,110.94z"/>
	<path class="st0" d="M252.3,108.66c-0.15-0.58-0.39-1.1-0.72-1.56c-0.33-0.45-0.76-0.82-1.28-1.09c-0.52-0.27-1.13-0.4-1.83-0.4
		c-0.62,0-1.19,0.11-1.71,0.33c-0.51,0.22-0.96,0.53-1.33,0.91c-0.37,0.39-0.66,0.84-0.86,1.37c-0.2,0.53-0.3,1.1-0.3,1.71
		c0,0.64,0.1,1.22,0.29,1.75c0.2,0.53,0.47,0.98,0.83,1.37c0.36,0.38,0.8,0.68,1.32,0.89c0.52,0.21,1.1,0.32,1.75,0.32
		c0.93,0,1.73-0.22,2.38-0.65c0.66-0.43,1.14-1.14,1.46-2.11h-1.98c-0.07,0.25-0.28,0.49-0.6,0.72c-0.33,0.23-0.72,0.34-1.17,0.34
		c-0.64,0-1.12-0.17-1.46-0.5c-0.34-0.33-0.52-0.86-0.56-1.58h5.92C252.5,109.85,252.45,109.25,252.3,108.66z M246.54,109.06
		c0.01-0.16,0.04-0.34,0.1-0.54c0.06-0.2,0.16-0.39,0.3-0.57c0.14-0.18,0.33-0.33,0.57-0.45c0.24-0.12,0.54-0.18,0.9-0.18
		c0.55,0,0.96,0.15,1.23,0.44c0.27,0.3,0.46,0.73,0.56,1.3H246.54z"/>
	<path class="st0" d="M258.91,112.12c-0.3,0.3-0.71,0.45-1.24,0.45c-0.35,0-0.65-0.08-0.89-0.24c-0.24-0.16-0.44-0.36-0.58-0.61
		c-0.14-0.25-0.25-0.53-0.31-0.83c-0.06-0.31-0.1-0.61-0.1-0.9c0-0.3,0.03-0.6,0.1-0.92c0.06-0.32,0.17-0.61,0.33-0.86
		c0.15-0.26,0.35-0.47,0.6-0.64c0.24-0.16,0.54-0.25,0.9-0.25c0.96,0,1.52,0.47,1.67,1.41h2.21c-0.03-0.52-0.16-0.97-0.39-1.37
		c-0.23-0.39-0.52-0.72-0.87-0.98c-0.35-0.26-0.75-0.45-1.2-0.58c-0.45-0.13-0.92-0.19-1.4-0.19c-0.67,0-1.26,0.11-1.78,0.33
		c-0.52,0.22-0.96,0.53-1.32,0.93c-0.36,0.4-0.63,0.87-0.82,1.41c-0.19,0.55-0.28,1.13-0.28,1.77c0,0.61,0.1,1.18,0.3,1.69
		c0.2,0.51,0.48,0.96,0.84,1.33c0.36,0.38,0.79,0.67,1.3,0.87c0.51,0.21,1.07,0.31,1.7,0.31c1.09,0,1.98-0.29,2.68-0.86
		c0.7-0.58,1.12-1.41,1.27-2.5h-2.17C259.39,111.41,259.2,111.81,258.91,112.12z"/>
	<path class="st0" d="M269.99,106.8c-0.37-0.38-0.82-0.67-1.34-0.87c-0.52-0.21-1.11-0.31-1.75-0.31c-0.65,0-1.23,0.1-1.75,0.31
		c-0.52,0.21-0.96,0.5-1.33,0.87c-0.37,0.38-0.66,0.83-0.86,1.37c-0.2,0.53-0.3,1.13-0.3,1.79c0,0.66,0.1,1.25,0.3,1.78
		c0.2,0.53,0.49,0.98,0.86,1.36c0.37,0.38,0.81,0.67,1.33,0.87c0.52,0.21,1.1,0.31,1.75,0.31c0.65,0,1.23-0.1,1.75-0.31
		c0.52-0.21,0.97-0.5,1.34-0.87c0.37-0.38,0.66-0.83,0.86-1.36c0.2-0.53,0.3-1.12,0.3-1.78c0-0.66-0.1-1.25-0.3-1.79
		C270.64,107.63,270.36,107.17,269.99,106.8z M268.8,110.91c-0.06,0.31-0.17,0.59-0.33,0.84c-0.15,0.25-0.36,0.45-0.62,0.6
		c-0.26,0.15-0.58,0.22-0.96,0.22c-0.38,0-0.7-0.07-0.95-0.22c-0.25-0.15-0.46-0.35-0.61-0.6c-0.15-0.25-0.26-0.53-0.33-0.84
		c-0.06-0.31-0.1-0.63-0.1-0.96c0-0.33,0.03-0.65,0.1-0.97c0.06-0.32,0.17-0.6,0.33-0.84c0.15-0.24,0.36-0.44,0.61-0.6
		c0.25-0.15,0.57-0.23,0.95-0.23c0.38,0,0.7,0.08,0.96,0.23c0.26,0.15,0.47,0.35,0.62,0.6c0.15,0.24,0.26,0.52,0.33,0.84
		c0.06,0.32,0.1,0.64,0.1,0.97C268.89,110.28,268.86,110.6,268.8,110.91z"/>
	<polygon class="st0" points="265.7,104.82 267.27,104.82 269.72,102.57 267.22,102.57 	"/>
</g>
</svg>
